<svg width="896" height="518" viewBox="0 0 896 518" fill="none" xmlns="http://www.w3.org/2000/svg">
<g clip-path="url(#clip0)">
<path d="M418.953 48.6953L415.967 68.3497L881.039 139.017L884.025 119.363L418.953 48.6953Z" fill="#F5F5F5"/>
<path d="M410.934 40.7795L354.449 412.513L839.175 486.167L895.66 114.434L410.934 40.7795Z" fill="url(#paint0_linear)"/>
<path d="M415.955 68.3457L364.447 407.325L829.518 477.992L881.026 139.013L415.955 68.3457Z" fill="#F5F5F5"/>
<path d="M433.62 60.9766C434.024 58.3229 432.199 55.8448 429.546 55.4416C426.892 55.0384 424.414 56.8627 424.011 59.5164C423.607 62.17 425.432 64.6481 428.085 65.0513C430.739 65.4545 433.217 63.6302 433.62 60.9766Z" fill="#FF5252"/>
<path d="M446.832 62.9784C447.235 60.3248 445.411 57.8467 442.757 57.4435C440.104 57.0403 437.626 58.8646 437.222 61.5182C436.819 64.1719 438.643 66.6499 441.297 67.0532C443.951 67.4564 446.429 65.6321 446.832 62.9784Z" fill="#FFFF00"/>
<path d="M460.044 64.9903C460.447 62.3367 458.623 59.8586 455.969 59.4553C453.315 59.0521 450.837 60.8765 450.434 63.5301C450.031 66.1838 451.855 68.6618 454.509 69.0651C457.162 69.4683 459.64 67.644 460.044 64.9903Z" fill="#69F0AE"/>
<path d="M431.01 101.632L412.348 224.452L829.935 287.904L848.597 165.084L431.01 101.632Z" fill="url(#paint1_linear)"/>
<path d="M843.783 169.375L435.203 107.291L417.909 221.105L826.489 283.188L843.783 169.375Z" fill="#EB6F86"/>
<path d="M476.369 282.755L472.761 306.502L500.601 310.732L504.21 286.985L476.369 282.755Z" fill="url(#paint2_linear)"/>
<path d="M503.577 288.563L477.377 284.582L474.391 304.237L500.59 308.218L503.577 288.563Z" fill="#EB6F86"/>
<path d="M498.461 322.135L472.262 318.154L469.276 337.808L495.475 341.789L498.461 322.135Z" fill="#FF5252"/>
<path d="M493.366 355.707L467.167 351.727L464.181 371.381L490.38 375.362L493.366 355.707Z" fill="#FF9800"/>
<path opacity="0.4" d="M757.591 331.349L546.346 299.251L544.605 310.709L755.85 342.808L757.591 331.349Z" fill="#EB6F86"/>
<path opacity="0.4" d="M752.486 364.922L541.241 332.823L539.5 344.282L750.745 376.381L752.486 364.922Z" fill="#EB6F86"/>
<path opacity="0.4" d="M747.391 398.495L536.146 366.396L534.405 377.855L745.65 409.954L747.391 398.495Z" fill="#EB6F86"/>
<path d="M499.665 8.85821L10.8867 118.113L15.1536 137.202L503.932 27.9472L499.665 8.85821Z" fill="#F5F5F5"/>
<path d="M509.424 -0.00562826L-0.00488281 113.865L80.7081 474.954L590.137 361.084L509.424 -0.00562826Z" fill="url(#paint3_linear)"/>
<path d="M503.928 27.9582L15.1504 137.213L88.7519 466.487L577.53 357.232L503.928 27.9582Z" fill="#F5F5F5"/>
<path d="M25.9952 129.653C28.7817 129.03 30.5738 126.437 29.998 123.861C29.4221 121.284 26.6963 119.701 23.9097 120.323C21.1232 120.946 19.3311 123.54 19.907 126.116C20.4829 128.692 23.2086 130.276 25.9952 129.653Z" fill="#FF5252"/>
<path d="M39.8844 126.558C42.6709 125.935 44.463 123.342 43.8871 120.765C43.3112 118.189 40.5855 116.605 37.7989 117.228C35.0124 117.851 33.2203 120.444 33.7961 123.021C34.372 125.597 37.0978 127.181 39.8844 126.558Z" fill="#FFFF00"/>
<path d="M53.7637 123.455C56.5503 122.832 58.3424 120.238 57.7665 117.662C57.1906 115.086 54.4648 113.502 51.6783 114.125C48.8918 114.748 47.0997 117.341 47.6755 119.918C48.2514 122.494 50.9772 124.078 53.7637 123.455Z" fill="#69F0AE"/>
<path d="M481.249 63.9243L42.3792 162.023L69.0472 281.329L507.917 183.23L481.249 63.9243Z" fill="url(#paint4_linear)"/>
<path d="M478.016 69.6537L48.6125 165.637L73.3238 276.189L502.727 180.206L478.016 69.6537Z" fill="#EB6F86"/>
<path d="M183.493 304.175L154.235 310.715L159.389 333.776L188.647 327.236L183.493 304.175Z" fill="url(#paint5_linear)"/>
<path d="M185.72 307.27L158.065 313.478L162.368 332.647L190.024 326.439L185.72 307.27Z" fill="#EB6F86"/>
<path d="M190.71 338.47L163.169 344.626L167.436 363.715L194.976 357.559L190.71 338.47Z" fill="#FF5252"/>
<path d="M200.487 372.728L172.831 378.936L177.134 398.105L204.79 391.897L200.487 372.728Z" fill="#FF9800"/>
<path opacity="0.4" d="M451.92 250.014L229.908 299.64L232.397 310.775L454.409 261.149L451.92 250.014Z" fill="#EB6F86"/>
<path opacity="0.4" d="M459.208 282.629L237.197 332.254L239.686 343.389L461.697 293.764L459.208 282.629Z" fill="#EB6F86"/>
<path opacity="0.4" d="M466.496 315.233L244.485 364.858L246.974 375.994L468.985 326.368L466.496 315.233Z" fill="#EB6F86"/>
<path d="M738.07 18.48H170.07V42.48H738.07V18.48Z" fill="#F5F5F5"/>
<path d="M751.07 10.48H159.07V464.48H751.07V10.48Z" fill="url(#paint6_linear)"/>
<path d="M738.07 42.48H170.07V456.48H738.07V42.48Z" fill="white"/>
<path d="M183.94 36.35C187.182 36.35 189.81 33.7219 189.81 30.48C189.81 27.2381 187.182 24.61 183.94 24.61C180.698 24.61 178.07 27.2381 178.07 30.48C178.07 33.7219 180.698 36.35 183.94 36.35Z" fill="#FF5252"/>
<path d="M200.07 36.35C203.312 36.35 205.94 33.7219 205.94 30.48C205.94 27.2381 203.312 24.61 200.07 24.61C196.828 24.61 194.2 27.2381 194.2 30.48C194.2 33.7219 196.828 36.35 200.07 36.35Z" fill="#FFFF00"/>
<path d="M216.2 36.35C219.442 36.35 222.07 33.7219 222.07 30.48C222.07 27.2381 219.442 24.61 216.2 24.61C212.958 24.61 210.33 27.2381 210.33 30.48C210.33 33.7219 212.958 36.35 216.2 36.35Z" fill="#69F0AE"/>
<path d="M704.07 79.48H194.07V229.48H704.07V79.48Z" fill="url(#paint7_linear)"/>
<path d="M699.07 85.48H200.07V224.48H699.07V85.48Z" fill="#EB6F86"/>
<path d="M315.07 287.48H281.07V316.48H315.07V287.48Z" fill="url(#paint8_linear)"/>
<path d="M314.57 289.48H282.57V313.48H314.57V289.48Z" fill="#EB6F86"/>
<path d="M314.57 330.48H282.57V354.48H314.57V330.48Z" fill="#FF5252"/>
<path d="M314.57 371.48H282.57V395.48H314.57V371.48Z" fill="#FF9800"/>
<path opacity="0.4" d="M625.57 294.48H367.57V308.48H625.57V294.48Z" fill="#EB6F86"/>
<path opacity="0.4" d="M625.57 335.48H367.57V349.48H625.57V335.48Z" fill="#EB6F86"/>
<path opacity="0.4" d="M625.57 376.48H367.57V390.48H625.57V376.48Z" fill="#EB6F86"/>
<path d="M550.07 364.48H364.07V517.48H550.07V364.48Z" fill="url(#paint9_linear)"/>
<path d="M406.99 340.15C406.99 326.336 412.478 313.088 422.245 303.32C432.013 293.552 445.261 288.065 459.075 288.065C472.889 288.065 486.137 293.552 495.905 303.32C505.672 313.088 511.16 326.336 511.16 340.15V373.48H525.74V340.15C525.848 331.327 524.204 322.57 520.902 314.387C517.6 306.204 512.707 298.758 506.506 292.48C500.304 286.203 492.919 281.219 484.777 277.817C476.635 274.415 467.899 272.663 459.075 272.663C450.251 272.663 441.515 274.415 433.373 277.817C425.231 281.219 417.846 286.203 411.644 292.48C405.443 298.758 400.55 306.204 397.248 314.387C393.946 322.57 392.302 331.327 392.41 340.15V373.48H406.99V340.15Z" fill="url(#paint10_linear)"/>
<path d="M409.07 339.48C409.07 326.219 414.338 313.501 423.715 304.125C433.092 294.748 445.809 289.48 459.07 289.48C472.331 289.48 485.049 294.748 494.425 304.125C503.802 313.501 509.07 326.219 509.07 339.48V371.48H523.07V339.48C523.07 322.506 516.327 306.227 504.325 294.225C492.323 282.223 476.044 275.48 459.07 275.48C442.096 275.48 425.818 282.223 413.815 294.225C401.813 306.227 395.07 322.506 395.07 339.48V371.48H409.07V339.48Z" fill="white"/>
<path d="M546.07 369.48H372.07V511.48H546.07V369.48Z" fill="#EB6F86"/>
<path d="M546.07 369.48H372.07V511.48H546.07V369.48Z" fill="white"/>
<path d="M546.07 397.48H372.07V483.48H546.07V397.48Z" fill="#EB6F86"/>
<path d="M471.84 424.24C471.85 422.152 471.347 420.094 470.376 418.246C469.405 416.398 467.995 414.816 466.271 413.639C464.546 412.463 462.559 411.727 460.484 411.498C458.409 411.268 456.309 411.551 454.369 412.322C452.429 413.092 450.707 414.328 449.356 415.919C448.004 417.51 447.063 419.408 446.616 421.448C446.169 423.487 446.229 425.605 446.791 427.615C447.353 429.626 448.4 431.468 449.84 432.98V460.2C449.84 462.661 450.818 465.022 452.558 466.762C454.298 468.502 456.659 469.48 459.12 469.48C461.581 469.48 463.942 468.502 465.682 466.762C467.422 465.022 468.4 462.661 468.4 460.2V432.98C470.621 430.613 471.852 427.486 471.84 424.24Z" fill="url(#paint11_linear)"/>
<path opacity="0.2" d="M470.07 426.48C470.073 424.684 469.637 422.914 468.798 421.325C467.959 419.737 466.745 418.378 465.26 417.367C463.775 416.356 462.065 415.724 460.279 415.527C458.494 415.329 456.687 415.572 455.017 416.234C453.347 416.896 451.865 417.957 450.699 419.324C449.534 420.691 448.721 422.322 448.332 424.076C447.942 425.829 447.988 427.652 448.466 429.383C448.943 431.115 449.837 432.704 451.07 434.01V457.48C451.07 459.602 451.913 461.637 453.413 463.137C454.913 464.637 456.948 465.48 459.07 465.48C461.192 465.48 463.227 464.637 464.727 463.137C466.227 461.637 467.07 459.602 467.07 457.48V434.01C468.992 431.973 470.065 429.28 470.07 426.48V426.48Z" fill="black"/>
</g>
<defs>
<linearGradient id="paint0_linear" x1="596.817" y1="449.34" x2="653.302" y2="77.6073" gradientUnits="userSpaceOnUse">
<stop stop-color="#808080" stop-opacity="0.25"/>
<stop offset="0.54" stop-color="#808080" stop-opacity="0.12"/>
<stop offset="1" stop-color="#808080" stop-opacity="0.1"/>
</linearGradient>
<linearGradient id="paint1_linear" x1="68821.6" y1="200948" x2="76704.3" y2="149072" gradientUnits="userSpaceOnUse">
<stop stop-color="#808080" stop-opacity="0.25"/>
<stop offset="0.54" stop-color="#808080" stop-opacity="0.12"/>
<stop offset="1" stop-color="#808080" stop-opacity="0.1"/>
</linearGradient>
<linearGradient id="paint2_linear" x1="13964.4" y1="17071.5" x2="14066.1" y2="16402.8" gradientUnits="userSpaceOnUse">
<stop stop-color="#808080" stop-opacity="0.25"/>
<stop offset="0.54" stop-color="#808080" stop-opacity="0.12"/>
<stop offset="1" stop-color="#808080" stop-opacity="0.1"/>
</linearGradient>
<linearGradient id="paint3_linear" x1="269784" y1="169280" x2="239920" y2="35677" gradientUnits="userSpaceOnUse">
<stop stop-color="#808080" stop-opacity="0.25"/>
<stop offset="0.54" stop-color="#808080" stop-opacity="0.12"/>
<stop offset="1" stop-color="#808080" stop-opacity="0.1"/>
</linearGradient>
<linearGradient id="paint4_linear" x1="199071" y1="7509.6" x2="195811" y2="-7075.53" gradientUnits="userSpaceOnUse">
<stop stop-color="#808080" stop-opacity="0.25"/>
<stop offset="0.54" stop-color="#808080" stop-opacity="0.12"/>
<stop offset="1" stop-color="#808080" stop-opacity="0.1"/>
</linearGradient>
<linearGradient id="paint5_linear" x1="11325.7" y1="9585.89" x2="11203.9" y2="9040.96" gradientUnits="userSpaceOnUse">
<stop stop-color="#808080" stop-opacity="0.25"/>
<stop offset="0.54" stop-color="#808080" stop-opacity="0.12"/>
<stop offset="1" stop-color="#808080" stop-opacity="0.1"/>
</linearGradient>
<linearGradient id="paint6_linear" x1="269561" y1="210884" x2="269561" y2="4768.4" gradientUnits="userSpaceOnUse">
<stop stop-color="#808080" stop-opacity="0.25"/>
<stop offset="0.54" stop-color="#808080" stop-opacity="0.12"/>
<stop offset="1" stop-color="#808080" stop-opacity="0.1"/>
</linearGradient>
<linearGradient id="paint7_linear" x1="229220" y1="34501.5" x2="229220" y2="12001.5" gradientUnits="userSpaceOnUse">
<stop stop-color="#808080" stop-opacity="0.25"/>
<stop offset="0.54" stop-color="#808080" stop-opacity="0.12"/>
<stop offset="1" stop-color="#808080" stop-opacity="0.1"/>
</linearGradient>
<linearGradient id="paint8_linear" x1="10415.4" y1="9465.4" x2="10415.4" y2="8624.4" gradientUnits="userSpaceOnUse">
<stop stop-color="#808080" stop-opacity="0.25"/>
<stop offset="0.54" stop-color="#808080" stop-opacity="0.12"/>
<stop offset="1" stop-color="#808080" stop-opacity="0.1"/>
</linearGradient>
<linearGradient id="paint9_linear" x1="85379.1" y1="79538.9" x2="85379.1" y2="56129.9" gradientUnits="userSpaceOnUse">
<stop stop-color="#808080" stop-opacity="0.25"/>
<stop offset="0.54" stop-color="#808080" stop-opacity="0.12"/>
<stop offset="1" stop-color="#808080" stop-opacity="0.1"/>
</linearGradient>
<linearGradient id="paint10_linear" x1="81893.8" y1="57207.8" x2="81893.8" y2="47126.1" gradientUnits="userSpaceOnUse">
<stop stop-color="#808080" stop-opacity="0.25"/>
<stop offset="0.54" stop-color="#808080" stop-opacity="0.12"/>
<stop offset="1" stop-color="#808080" stop-opacity="0.1"/>
</linearGradient>
<linearGradient id="paint11_linear" x1="16044.9" y1="38773.9" x2="16044.9" y2="35406.4" gradientUnits="userSpaceOnUse">
<stop stop-color="#808080" stop-opacity="0.25"/>
<stop offset="0.54" stop-color="#808080" stop-opacity="0.12"/>
<stop offset="1" stop-color="#808080" stop-opacity="0.1"/>
</linearGradient>
<clipPath id="clip0">
<rect width="895.68" height="517.48" fill="white"/>
</clipPath>
</defs>
</svg>
