<svg width="972" height="765" viewBox="0 0 972 765" fill="none" xmlns="http://www.w3.org/2000/svg">
<g clip-path="url(#clip0)">
<g opacity="0.5">
<path opacity="0.5" d="M693.99 0.0999991C690.18 0.0399991 685.37 1.1 682.43 6.37C676.67 16.73 685.94 26.92 681.16 37.96C679.802 40.9643 677.66 43.5479 674.96 45.44C670.34 48.77 665.63 49.76 660.96 51.75C655.349 53.9856 650.707 58.1287 647.85 63.45C645.008 69.1983 644.043 75.6937 645.09 82.02C646.01 87.54 648.18 91.92 649.97 96.64C652.143 102.485 653.715 108.536 654.66 114.7C655.195 117.574 655.349 120.506 655.12 123.42C654.597 127.132 653.696 130.781 652.43 134.31L642.15 166.5C640.671 170.694 639.566 175.011 638.85 179.4C638.399 183.982 638.533 188.602 639.25 193.15C640.37 202.57 641.62 212.37 646.08 218.26C650.54 224.15 659.29 224.53 665.69 216.18C671.78 208.18 673.35 196.08 678.93 187.38C687.72 173.66 701.78 174.85 711.2 162C720.2 149.68 720.06 131.9 725.71 116.74C729.71 105.88 736.71 96.74 741.43 86.19C748.24 70.98 749.8 53.9 747.43 40.42C745.312 28.5699 740.084 17.4954 732.28 8.33C729.36 4.79 726.18 1.5 722.13 0.330002C717.82 -0.949998 713.52 2.33 709.08 2.63C703.95 2.89 699.16 0.179999 693.99 0.0999991Z" fill="#EB6F86"/>
<path opacity="0.5" d="M718.15 0.199999C718.15 0.199999 693.35 143.85 652.15 222.28" stroke="#535461" stroke-width="2" stroke-miterlimit="10"/>
<path opacity="0.5" d="M682.15 7.03C682.15 7.03 712.41 38.03 700.83 80.87" stroke="#535461" stroke-width="2" stroke-miterlimit="10"/>
<path opacity="0.5" d="M646.48 66.62C646.48 66.62 699.73 87.84 692.69 111.96" stroke="#535461" stroke-width="2" stroke-miterlimit="10"/>
<path opacity="0.5" d="M747.59 40.1C747.59 40.1 723.85 49.77 699.25 87.21" stroke="#535461" stroke-width="2" stroke-miterlimit="10"/>
<path opacity="0.5" d="M710.85 162.15C710.85 162.15 694.78 167.73 686.57 133.15" stroke="#535461" stroke-width="2" stroke-miterlimit="10"/>
<path opacity="0.5" d="M644 165.44C644 165.44 674.92 169.56 679.52 155.44" stroke="#535461" stroke-width="2" stroke-miterlimit="10"/>
</g>
<g opacity="0.5">
<path opacity="0.5" d="M101.22 177.9C99.08 181.06 97.32 185.65 100.12 191C105.62 201.5 119.22 199.34 125.83 209.39C127.596 212.175 128.581 215.384 128.68 218.68C128.93 224.37 127.17 228.85 126.26 233.86C125.058 239.768 125.975 245.911 128.85 251.21C132.095 256.736 136.991 261.104 142.85 263.7C147.97 265.96 152.85 266.54 157.75 267.64C163.829 269.034 169.749 271.044 175.42 273.64C178.115 274.77 180.65 276.249 182.96 278.04C185.777 280.512 188.334 283.267 190.59 286.26L211.86 312.52C214.563 316.06 217.574 319.353 220.86 322.36C224.445 325.251 228.383 327.674 232.58 329.57C241.07 333.8 249.95 338.13 257.32 337.64C264.69 337.15 269.81 330.04 266.32 320.1C263.02 310.64 253.72 302.67 249.5 293.23C242.85 278.35 251.56 267.23 245.99 252.33C240.65 238.01 225.68 228.41 216.12 215.33C209.26 205.99 205.44 195.17 199.21 185.42C190.21 171.42 176.81 160.71 164.21 155.29C153.138 150.557 141.007 148.852 129.06 150.35C124.5 150.85 120.01 151.7 116.77 154.43C113.33 157.33 113.77 162.75 111.53 166.6C109.03 171.1 104.13 173.62 101.22 177.9Z" fill="#EB6F86"/>
<path opacity="0.5" d="M114.57 157.76C114.57 157.76 221.05 257.31 263.99 334.82" stroke="#535461" stroke-width="2" stroke-miterlimit="10"/>
<path opacity="0.5" d="M100.53 191.6C100.53 191.6 143.08 183.33 172.53 216.5" stroke="#535461" stroke-width="2" stroke-miterlimit="10"/>
<path opacity="0.5" d="M130.77 254.1C130.77 254.1 177.77 221.23 194.03 240.35" stroke="#535461" stroke-width="2" stroke-miterlimit="10"/>
<path opacity="0.5" d="M164.09 155.1C164.09 155.1 159.14 180.26 176.95 221.36" stroke="#535461" stroke-width="2" stroke-miterlimit="10"/>
<path opacity="0.5" d="M245.96 252.71C245.96 252.71 241.8 269.21 208.36 257.08" stroke="#535461" stroke-width="2" stroke-miterlimit="10"/>
<path opacity="0.5" d="M212.02 310.42C212.02 310.42 232.43 286.83 223.15 275.25" stroke="#535461" stroke-width="2" stroke-miterlimit="10"/>
</g>
<path d="M81.21 62.43C76.21 68.34 71.53 76.52 75.21 84.59C82.35 100.4 108.54 92.69 117.89 107.43C120.69 111.84 121.07 117.23 120.42 122.04C119.16 131.45 114.5 139.44 111.28 148.04C108.06 156.64 106.39 167.04 110.93 176.12C115.3 184.91 124.51 190.46 133.43 192.67C142.35 194.88 151.29 194.38 160.2 194.67C170.785 195.085 181.295 196.634 191.55 199.29C196.062 200.263 200.39 201.951 204.37 204.29C208.92 207.2 212.6 211.47 216.2 215.67L248.2 252.96C252.45 257.96 256.79 262.96 262.06 266.63C268.14 270.86 275.06 273.01 281.87 275.08C296.52 279.56 311.87 284.08 325.87 281.01C339.87 277.94 351.62 264.56 348.12 249.07C344.79 234.32 329.77 223.86 324.71 209.41C316.71 186.64 336.46 165.52 330.53 142.35C324.85 120.13 299.67 108.67 285.67 89.86C275.67 76.38 271.73 59.52 262.99 45.18C250.4 24.52 228.44 10.81 206.49 5.61C184.54 0.41 162.47 2.92 141.93 8.1C133.23 10.31 124.53 13.1 117.63 18.62C110.3 24.49 109.45 33.39 104.11 40.48C97.92 48.74 87.95 54.42 81.21 62.43Z" fill="#EB6F86"/>
<path d="M112.36 24.83C112.36 24.83 282.03 158.33 339.12 274.39" stroke="#535461" stroke-width="2" stroke-miterlimit="10"/>
<path d="M75.75 85.46C75.75 85.46 158.12 58.78 203.3 105.1" stroke="#535461" stroke-width="2" stroke-miterlimit="10"/>
<path d="M113.55 180.4C113.55 180.4 211.66 111.4 236.46 138.31" stroke="#535461" stroke-width="2" stroke-miterlimit="10"/>
<path d="M206.14 5.31C206.14 5.31 189.23 48.7 210.14 111.77" stroke="#535461" stroke-width="2" stroke-miterlimit="10"/>
<path d="M330.19 143.1C330.19 143.1 317.38 171.83 258.29 161.78" stroke="#535461" stroke-width="2" stroke-miterlimit="10"/>
<path d="M248.98 249.53C248.98 249.53 294.45 204.05 280.55 187.53" stroke="#535461" stroke-width="2" stroke-miterlimit="10"/>
<path opacity="0.1" d="M485.85 764.21C754.178 764.21 971.7 745.818 971.7 723.13C971.7 700.442 754.178 682.05 485.85 682.05C217.522 682.05 0 700.442 0 723.13C0 745.818 217.522 764.21 485.85 764.21Z" fill="#EB6F86"/>
<path d="M863.03 399.24C860.96 393.18 857.97 385.5 855.61 383.69C855.466 383.574 855.308 383.477 855.14 383.4H854.85V375.91L849.27 376.8C848.383 374.094 847.714 371.322 847.27 368.51C847.807 369.048 848.492 369.415 849.238 369.565C849.983 369.714 850.757 369.64 851.46 369.35C851.37 369.2 851.29 369.04 851.21 368.88L851.46 368.77C850.581 367.221 850.116 365.471 850.11 363.69C850.154 362.063 850.413 360.449 850.88 358.89C851.88 355.44 853.57 352.22 854.51 348.75C855.11 346.517 855.393 344.211 855.35 341.9C855.381 337.982 854.49 334.111 852.75 330.6C852.31 329.586 851.622 328.699 850.75 328.02C849.965 327.584 849.157 327.19 848.33 326.84C846.943 325.906 845.748 324.714 844.81 323.33C840.846 318.502 835.539 314.959 829.56 313.15C828.001 312.568 826.311 312.433 824.68 312.76C820.93 313.76 819.57 318.41 816.53 320.85C813.85 323 810.17 323.22 806.8 323.94C803.43 324.66 800.04 326.09 797.74 328.69C796.155 330.502 795.291 332.833 795.31 335.24C795.218 336.365 795.416 337.494 795.885 338.52C796.354 339.546 797.079 340.434 797.99 341.1C799.028 341.78 800.204 342.223 801.433 342.396C802.662 342.569 803.914 342.468 805.1 342.1C804.173 345.301 803.918 348.659 804.35 351.963C804.783 355.267 805.893 358.446 807.613 361.301C809.332 364.155 811.623 366.623 814.341 368.551C817.06 370.478 820.147 371.823 823.41 372.5L824.06 373.67C826.07 377.412 827.595 381.394 828.6 385.52C823.46 388.43 817.85 391.16 814.46 391.42C814.323 392.745 814.076 394.056 813.72 395.34C812.927 398.559 811.405 401.553 809.27 404.09C804.66 409.27 783.93 448.43 783.93 448.43C783.93 448.43 783.28 449.99 782.21 452.65C769.34 454.23 748.33 456.51 742.47 455.34L719.47 433.46C719.47 433.46 712.03 439.14 712.68 446.04L708.59 442.1C708.59 442.1 686.71 458.8 721.26 469.74L773.83 475.84C768.83 490.95 764.15 508.54 765.6 518.11H766.03C767.034 518.109 768.037 518.032 769.03 517.88L768.94 519.58L763.85 610.27C763.85 610.27 762.7 626.97 778.25 634.45C778.25 634.45 797.25 690.3 789.77 696.64C789.77 696.64 790.66 697.11 792.16 697.76L776.53 711.61C776.53 711.61 765.01 714.49 758.68 713.91C757.567 713.757 756.438 714.02 755.506 714.647C754.575 715.274 753.907 716.222 753.63 717.31C753.63 717.43 753.63 717.55 753.57 717.67V717.82C753.57 717.94 753.57 718.06 753.57 718.19C753.57 718.32 753.57 718.28 753.57 718.33C753.57 718.38 753.57 718.54 753.57 718.65C753.57 718.76 753.57 718.74 753.57 718.78C753.57 718.82 753.57 719.03 753.64 719.15V719.29C753.673 719.423 753.717 719.557 753.77 719.69L753.82 719.81C753.87 719.94 753.93 720.07 754 720.2V720.29C754.07 720.42 754.15 720.54 754.23 720.67L754.3 720.78C754.393 720.913 754.497 721.047 754.61 721.18L754.7 721.28C754.82 721.42 754.95 721.55 755.08 721.68L755.14 721.73L755.57 722.1L755.66 722.17C755.82 722.3 756 722.42 756.18 722.54L756.3 722.62C756.49 722.74 756.69 722.86 756.9 722.97H756.99L757.64 723.29H757.73L758.49 723.59L758.65 723.65L759.48 723.92H759.62L760.53 724.16H760.6L761.6 724.36H761.8L762.88 724.52H763.09L764.31 724.64C766.68 724.82 769.87 724.89 773.56 724.87C773.56 724.87 773.56 724.96 773.56 725.01C773.56 725.06 773.56 725.22 773.56 725.33V725.46C773.56 725.58 773.56 725.71 773.63 725.83V725.97C773.663 726.103 773.707 726.237 773.76 726.37L773.81 726.49C773.86 726.62 773.92 726.75 773.99 726.88V726.97C774.06 727.1 774.14 727.22 774.22 727.35L774.29 727.46C774.383 727.593 774.487 727.727 774.6 727.86L774.69 727.96C774.81 728.1 774.94 728.23 775.07 728.36L775.13 728.41L775.56 728.78L775.65 728.85C775.81 728.98 775.99 729.1 776.17 729.22L776.3 729.3C776.49 729.42 776.69 729.54 776.9 729.65H776.99L777.64 729.97H777.73L778.49 730.27L778.65 730.33L779.48 730.6H779.62L780.53 730.84H780.6L781.6 731.04H781.8L782.88 731.2H783.09L784.31 731.32C799.31 732.47 847.07 729.02 847.07 729.02V728.89V728.72C847.54 726.49 849.84 713.53 841.68 703.95C841.92 703.7 842.16 703.43 842.38 703.15C842.38 703.15 836.05 692.21 839.5 688.75C842.95 685.29 822.23 625.41 822.23 625.41C822.23 625.41 811.29 608.14 817.62 588.56C823.95 568.98 817.04 547.68 817.04 547.68C817.04 547.68 832.14 543.19 832.45 524.6C832.45 524.04 832.45 523.46 832.45 522.87C832.781 522.917 833.115 522.937 833.45 522.93C833.663 522.945 833.877 522.945 834.09 522.93C834.09 522.93 831.21 512.57 834.67 505.08C838.13 497.59 845.61 504.5 852.52 473.99C857.52 451.91 861.92 426.51 863.97 414.15C864.856 409.177 864.534 404.063 863.03 399.24V399.24ZM731.62 464.02L726.37 459.02C728.11 459.74 730.04 460.45 732.2 461.13L752 463.43C743.16 464.23 734.95 464.68 731.62 464.02Z" fill="url(#paint0_linear)"/>
<path d="M781.74 461.1C781.74 461.1 741.01 466.76 732.52 465.1L709.85 443.54C709.85 443.54 688.35 459.95 722.3 470.69L785.7 478.1L781.74 461.1Z" fill="#FDC2CC"/>
<path opacity="0.05" d="M781.74 461.1C781.74 461.1 741.01 466.76 732.52 465.1L709.85 443.54C709.85 443.54 688.35 459.95 722.3 470.69L785.7 478.1L781.74 461.1Z" fill="black"/>
<path d="M796.45 690.75L776.65 708.29C776.65 708.29 765.34 711.12 759.11 710.55C752.88 709.98 750.06 720.17 764.77 721.3C779.48 722.43 826.43 719.04 826.43 719.04C826.43 719.04 830.96 700.94 817.38 690.75H796.45Z" fill="#47465A"/>
<path opacity="0.05" d="M796.45 690.75L776.65 708.29C776.65 708.29 765.34 711.12 759.11 710.55C752.88 709.98 750.06 720.17 764.77 721.3C779.48 722.43 826.43 719.04 826.43 719.04C826.43 719.04 830.96 700.94 817.38 690.75H796.45Z" fill="black"/>
<path opacity="0.3" d="M827.14 711.21C827.106 713.272 826.869 715.325 826.43 717.34C826.43 717.34 779.43 720.73 764.77 719.6C757.7 719.06 754.69 716.42 754.15 713.89C753.51 716.79 756.07 720.63 764.77 721.3C779.48 722.43 826.43 719.04 826.43 719.04C826.981 716.468 827.219 713.839 827.14 711.21V711.21Z" fill="white"/>
<path d="M819.64 370C819.64 370 832.09 387.54 827.56 399.42C823.03 411.3 851.32 386.97 851.32 386.97C851.32 386.97 842.27 371.13 846.79 354.16L819.64 370Z" fill="#FDC2CC"/>
<path d="M816.25 697.54L796.45 715.1C796.45 715.1 785.14 717.93 778.91 717.36C772.68 716.79 769.85 726.96 784.57 728.1C799.29 729.24 846.23 725.84 846.23 725.84C846.23 725.84 850.76 707.74 837.18 697.55L816.25 697.54Z" fill="#47465A"/>
<path d="M821.91 693.58C818.96 697.22 814.8 698.58 810.45 698.83C800.56 699.3 789.67 693.58 789.67 693.58C797.02 687.36 778.36 632.48 778.36 632.48C763.09 625.13 764.22 608.72 764.22 608.72L769.22 519.65L770.47 497.28L786.31 487.66L798.8 497.24L810.64 506.33C811.41 509.22 811.905 512.177 812.12 515.16C813.49 535.95 797.06 540.84 797.06 540.84C797.06 540.84 803.85 561.77 797.63 581C791.41 600.23 802.16 617.2 802.16 617.2C802.16 617.2 822.53 676.03 819.16 679.43C815.79 682.83 821.91 693.58 821.91 693.58Z" fill="#565171"/>
<path opacity="0.05" d="M821.91 693.58C818.96 697.22 814.8 698.58 810.45 698.83C800.56 699.3 789.67 693.58 789.67 693.58C797.02 687.36 778.36 632.48 778.36 632.48C763.09 625.13 764.22 608.72 764.22 608.72L769.22 519.65L770.47 497.28L786.31 487.66L798.8 497.24L810.64 506.33C811.41 509.22 811.905 512.177 812.12 515.16C813.49 535.95 797.06 540.84 797.06 540.84C797.06 540.84 803.85 561.77 797.63 581C791.41 600.23 802.16 617.2 802.16 617.2C802.16 617.2 822.53 676.03 819.16 679.43C815.79 682.83 821.91 693.58 821.91 693.58Z" fill="black"/>
<path d="M841.71 700.37C832.09 712.25 809.47 700.37 809.47 700.37C809.931 699.952 810.275 699.421 810.47 698.83C814.62 687.55 796.47 633.62 796.47 633.62C781.2 626.27 779.47 608.73 779.47 608.73L775.47 518.08L774.95 506.34L798.75 497.25L806.06 494.46L830.39 513.1C831.443 516.955 831.968 520.934 831.95 524.93C831.65 543.22 816.85 547.63 816.85 547.63C816.85 547.63 823.64 568.56 817.42 587.79C811.2 607.02 821.95 623.99 821.95 623.99C821.95 623.99 842.32 682.82 838.95 686.22C835.58 689.62 841.71 700.37 841.71 700.37Z" fill="#565171"/>
<path opacity="0.1" d="M831.95 524.95C827.06 524.25 817.16 518.36 812.07 515.16C810.13 513.94 808.89 513.16 808.89 513.16C808.89 513.16 803.8 499.02 790.22 509.77C785.804 513.352 780.818 516.168 775.47 518.1C773.424 518.824 771.315 519.353 769.17 519.68L770.42 497.31L786.26 487.69L798.75 497.27L806.06 494.48L830.39 513.1C831.445 516.961 831.97 520.948 831.95 524.95V524.95Z" fill="black"/>
<path d="M862.57 416.43C860.57 428.57 856.23 453.52 851.32 475.22C844.53 505.22 837.18 498.41 833.78 505.77C830.38 513.13 833.21 523.31 833.21 523.31C827.55 523.88 808.88 511.43 808.88 511.43C808.88 511.43 803.79 497.29 790.21 508.04C776.63 518.79 765.88 518.22 765.88 518.22C763.05 499.55 783.98 449.77 783.98 449.77C783.98 449.77 804.37 411.3 808.85 406.21C810.947 403.716 812.442 400.774 813.22 397.61C813.567 396.349 813.808 395.061 813.94 393.76C821.29 393.19 839.4 380.76 839.4 380.76L853.54 378.5V385.85C853.704 385.924 853.859 386.018 854 386.13C856.33 387.91 859.26 395.46 861.29 401.41C862.946 406.235 863.386 411.394 862.57 416.43V416.43Z" fill="#F68080"/>
<path opacity="0.1" d="M851.32 393.2C851.32 393.2 836.61 381.32 814.55 419.79C792.49 458.26 787.4 452.03 787.4 452.03C787.4 452.03 791.93 469.03 789.66 472.4C789.66 472.4 804.93 471.27 810.59 472.4C816.25 473.53 851.32 429.4 851.32 429.4C851.32 429.4 869.43 404.51 851.32 393.2Z" fill="black"/>
<path opacity="0.1" d="M850.76 390.93C850.76 390.93 836.05 379.1 813.99 417.52C791.93 455.94 786.85 449.77 786.85 449.77C786.85 449.77 804.37 469 810.03 470.1C815.69 471.2 850.76 427.1 850.76 427.1C850.76 427.1 868.85 402.25 850.76 390.93Z" fill="black"/>
<path opacity="0.1" d="M789.14 468.72C789.37 464.53 787.79 457.16 786.88 453.34C790.32 452.89 792.49 452.59 792.49 452.59L796.49 469.59L789.14 468.72Z" fill="black"/>
<path opacity="0.1" d="M847.36 355.29L820.21 371.1C821.353 372.77 822.408 374.499 823.37 376.28C824.937 376.599 826.531 376.76 828.13 376.76C835.38 376.76 838.76 369.15 843.13 364.03C842.85 359.95 846.15 359.85 847.36 355.29Z" fill="black"/>
<path d="M827.57 375.66C840.692 375.66 851.33 365.022 851.33 351.9C851.33 338.778 840.692 328.14 827.57 328.14C814.448 328.14 803.81 338.778 803.81 351.9C803.81 365.022 814.448 375.66 827.57 375.66Z" fill="#FDC2CC"/>
<path opacity="0.1" d="M797.51 332.68C799.908 330.221 803.024 328.586 806.41 328.01C809.71 327.3 813.33 327.08 815.97 325.01C818.97 322.62 820.29 318.08 823.97 317.07C825.571 316.748 827.23 316.88 828.76 317.45C834.64 319.224 839.861 322.704 843.76 327.45C844.679 328.81 845.85 329.981 847.21 330.9C848.023 331.244 848.818 331.632 849.59 332.06C850.437 332.729 851.104 333.598 851.53 334.59C854.183 339.946 854.795 346.086 853.25 351.86C852.33 355.27 850.67 358.43 849.69 361.86C848.71 365.29 848.46 369.1 850.26 372.13C848.52 373.02 846.32 371.9 845.26 370.28C844.2 368.66 843.84 366.66 843.26 364.79C842.128 361.112 840.008 357.815 837.13 355.26C835.35 353.68 832.13 352.62 830.92 354.66C830.44 355.45 830.47 356.45 830.06 357.27C829.25 358.87 826.91 359.19 825.36 358.27C823.866 357.239 822.816 355.682 822.42 353.91C820.09 346.03 816.12 341.07 807.69 344.44C804.55 345.7 800.85 346.55 797.83 344.39C793.85 341.54 794.66 335.9 797.51 332.68Z" fill="black"/>
<path d="M797.51 332.1C799.908 329.641 803.024 328.006 806.41 327.43C809.71 326.72 813.33 326.5 815.97 324.43C818.97 322.04 820.29 317.5 823.97 316.49C825.571 316.168 827.23 316.3 828.76 316.87C834.64 318.644 839.861 322.124 843.76 326.87C844.679 328.23 845.85 329.401 847.21 330.32C848.023 330.664 848.818 331.052 849.59 331.48C850.437 332.149 851.104 333.018 851.53 334.01C854.183 339.366 854.795 345.506 853.25 351.28C852.33 354.69 850.67 357.85 849.69 361.28C848.71 364.71 848.46 368.52 850.26 371.55C848.52 372.44 846.32 371.32 845.26 369.7C844.2 368.08 843.84 366.08 843.26 364.21C842.128 360.532 840.008 357.235 837.13 354.68C835.35 353.1 832.13 352.04 830.92 354.08C830.44 354.87 830.47 355.87 830.06 356.69C829.25 358.29 826.91 358.61 825.36 357.69C823.866 356.659 822.816 355.102 822.42 353.33C820.09 345.45 816.12 340.49 807.69 343.86C804.55 345.12 800.85 345.97 797.83 343.81C793.85 340.97 794.66 335.34 797.51 332.1Z" fill="#B96B6B"/>
<path opacity="0.05" d="M854.05 386.1H842.55C842.55 386.1 819.92 397.41 819.36 396.85C818.98 396.47 815.48 397.12 813.26 397.59C813.607 396.329 813.848 395.041 813.98 393.74C821.33 393.17 839.44 380.74 839.44 380.74L853.58 378.48V385.83C853.747 385.9 853.905 385.991 854.05 386.1V386.1Z" fill="black"/>
<path opacity="0.3" d="M846.94 718C846.906 720.062 846.669 722.115 846.23 724.13C846.23 724.13 799.23 727.52 784.57 726.39C777.5 725.85 774.49 723.21 773.95 720.68C773.31 723.58 775.87 727.42 784.57 728.09C799.28 729.22 846.23 725.83 846.23 725.83C846.781 723.258 847.019 720.629 846.94 718V718Z" fill="white"/>
<g opacity="0.05">
<path opacity="0.05" d="M784.85 507.47C777.22 513.47 770.47 515.98 766.04 516.98C766.04 517.4 766.12 517.82 766.18 518.22C766.18 518.22 776.93 518.79 790.51 508.04C792.613 506.237 795.099 504.938 797.78 504.24C794.85 502.83 790.59 502.92 784.85 507.47Z" fill="black"/>
<path opacity="0.05" d="M861.62 401.4C859.62 395.4 856.62 387.9 854.33 386.12C854.189 386.008 854.035 385.914 853.87 385.84C853.87 385.84 849.19 386 849.34 386.12C851.67 387.9 853.93 394.88 855.96 400.83C857.596 405.653 858.019 410.805 857.19 415.83C855.19 427.97 850.85 452.92 845.94 474.62C839.15 504.62 831.8 497.81 828.4 505.17C825.62 511.17 827.01 519.11 827.61 521.78C830.03 522.78 832.13 523.41 833.49 523.27C833.49 523.27 830.66 513.09 834.06 505.73C837.46 498.37 844.81 505.16 851.6 475.18C856.51 453.49 860.83 428.53 862.85 416.39C863.677 411.368 863.254 406.22 861.62 401.4V401.4Z" fill="black"/>
</g>
<path d="M284.21 715.9C284.21 715.9 271.21 716.8 263.11 702.9C261.539 700.093 259.683 697.456 257.57 695.03C254.976 690.777 253.628 685.881 253.68 680.9C254.13 670.58 243.36 614.02 243.36 614.02C243.36 614.02 244.71 592.47 233.93 579.02C226.84 570.16 216.64 544.76 210.49 528.44C210.904 528.808 211.402 529.069 211.94 529.2L211.69 527.79L211.94 527.85L208.8 510.34C204.172 505.016 200.271 499.101 197.2 492.75L197.92 492.6L207.45 490.6C207.45 490.6 222.94 468.6 223.89 457.76L225.15 457.82H226.93C246.64 457.39 269.84 460.07 269.84 460.07C269.84 460 269.73 459.72 269.61 459.28C269.008 457.101 268.544 454.887 268.22 452.65L269.11 452.59L277.93 452C277.93 452 308.45 417.89 297.23 411.6C286.01 405.31 274.34 439.88 274.34 439.88L270.57 440.57L269.57 440.76C269.67 440.61 269.77 440.47 269.89 440.33C270.01 440.19 220.06 438.09 212.43 425.97C212.43 425.97 190.43 408.46 189.54 396.79C189.06 390.6 185.18 387.31 181.63 385.59C178.915 384.296 175.909 383.734 172.91 383.96L162.61 384.67L163.34 385.97H163.05C162.404 384.49 161.863 382.966 161.43 381.41H161.64C161.57 381.09 161.5 380.77 161.44 380.41C164.596 379.665 167.571 378.294 170.188 376.379C172.805 374.463 175.011 372.042 176.676 369.259C178.34 366.475 179.429 363.386 179.878 360.174C180.327 356.963 180.127 353.693 179.29 350.56C180.288 350.689 181.3 350.662 182.29 350.48C186.07 349.7 188.76 345.86 188.86 342C188.86 341.75 188.86 341.5 188.86 341.25C188.86 341.25 188.86 341.15 188.86 341.1C188.823 339.166 188.355 337.265 187.49 335.535C186.625 333.805 185.385 332.29 183.86 331.1C181.8 329.39 179.35 328.17 177.48 326.27C175.26 324 174.05 320.96 172.32 318.27C169.436 313.846 165.156 310.513 160.16 308.8C156.44 307.54 151.89 307.4 149.04 310.1C147.57 311.49 146.72 313.48 145.04 314.65C142.67 316.34 139.45 315.84 136.55 316.18C131.29 316.8 126.67 320.55 124.35 325.32C122.927 328.332 122.242 331.64 122.35 334.97C122.318 337.256 122.591 339.536 123.16 341.75C123.72 343.96 124.55 346.09 125.16 348.28C126.42 352.84 126.71 357.64 128.16 362.15C129.142 365.487 131.099 368.454 133.78 370.67L133.35 372.53C133.07 372.59 126.08 374.09 121.24 384.65C117.42 392.97 104.5 401.57 98.82 405.04C97.7604 405.688 96.8405 406.541 96.1142 407.549C95.3879 408.557 94.8698 409.7 94.59 410.91C94.0446 413.358 93.8028 415.863 93.87 418.37C93.77 423.78 94.87 431.26 99.25 440.75C109.13 462.3 116.31 471.75 116.31 471.75C116.31 471.75 116.86 478.35 116.89 485.31C116.89 490.49 116.51 495.65 115.41 498.23C114.48 500.41 114.19 505.98 114.21 512.33C114.21 524.52 115.41 540.43 115.41 540.43C115.41 540.43 118.84 541.08 124.16 541.86L127.47 600.05C127.886 607.096 125.625 614.04 121.14 619.49C118.81 622.349 116.121 624.897 113.14 627.07C103.71 633.8 83.51 704.73 83.51 704.73C83.51 704.73 84.51 704.79 86.13 704.92L79.92 722.24C79.92 722.24 104.72 741.24 119.82 736.05C121.433 735.525 123.125 735.285 124.82 735.34C127.82 735.34 134.17 732.99 130.62 729.88C124.17 724.24 116.44 715.7 111.27 709.76C111.758 709.996 112.226 710.27 112.67 710.58V710.44L112.88 710.58C112.88 710.58 112.93 709.88 113.04 708.75L112.82 708.68C113.28 704.01 114.72 692.27 117.59 690.83C121.18 689.03 147.66 636.52 147.66 636.52L174.14 568.29C174.14 568.29 195.24 604.65 213.19 610.93V626.1C213.19 626.1 223.07 670.99 226.66 675.93C230.25 680.87 226.66 700.62 226.66 700.62C227.37 701.433 228.183 702.149 229.08 702.75L226.21 719.02C226.21 719.02 246.86 718.12 281.87 728.9C281.96 728.92 295.43 723.1 284.21 715.9ZM201.61 481.1L197.24 482.19L196.38 482.41C196.29 481.87 196.23 481.55 196.23 481.55C195.23 481.999 194.155 482.26 193.06 482.32C191.511 477.412 190.617 472.322 190.4 467.18C190.4 467.18 187.86 456.81 187.72 448.43C187.77 445.16 188.26 442.31 189.5 440.7L190.96 440.82L191.96 441.82L192.03 441.89L192.55 442.36L193.09 442.85L193.18 442.93L193.77 443.44L193.87 443.53L194.47 444.04L194.53 444.09L195.2 444.64L195.35 444.76L196.06 445.33H196.12L196.82 445.88L196.98 446L197.75 446.59L197.91 446.71L198.65 447.25L198.78 447.34L199.62 447.94L199.82 448.08L200.7 448.69L200.78 448.74L201.64 449.31L201.85 449.45L202.78 450.04L202.98 450.16L203.85 450.69L204.01 450.79L205.01 451.37L205.25 451.51L206.25 452.09H206.33L207.33 452.62L207.58 452.75L208.64 453.28L208.86 453.38L209.86 453.84L210.05 453.93L211.16 454.41L211.43 454.52L212.59 454.98C205.29 462.77 201.61 481.1 201.61 481.1Z" fill="url(#paint1_linear)"/>
<path d="M90.8999 694.22L82.5699 717.45C82.5699 717.45 105.38 734.94 120.2 731.32C122.432 730.765 124.707 730.397 127 730.22C130.07 729.99 135.35 727.76 132.09 724.91C121.57 715.71 107.55 698.62 107.55 698.62L90.8999 694.22Z" fill="#4F4D59"/>
<path d="M229.38 692.02L225.44 714.37C225.44 714.37 245.6 713.49 279.78 724.01C279.78 724.01 292.93 718.31 281.97 711.3C281.97 711.3 269.26 712.18 261.37 698.59C253.48 685 248.66 686.76 248.66 686.76L229.38 692.02Z" fill="#4F4D59"/>
<path d="M125.08 529.88L128.94 597.88C129.353 605.127 126.949 612.254 122.23 617.77C120.096 620.303 117.666 622.569 114.99 624.52C105.79 631.09 86.0699 700.33 86.0699 700.33C86.0699 700.33 108.42 701.64 114.55 706.03C114.55 706.03 115.86 688.5 119.37 686.75C122.88 685 148.73 633.75 148.73 633.75L174.6 567.1C174.6 567.1 195.2 602.6 212.73 608.73V623.63C212.73 623.63 222.37 667.45 225.88 672.27C229.39 677.09 225.88 696.37 225.88 696.37C225.88 696.37 235.96 709.08 259.18 695.49C259.18 695.49 251.73 687.16 252.18 677.08C252.63 667 242.1 611.79 242.1 611.79C242.1 611.79 243.41 590.79 232.9 577.61C222.39 564.43 204.85 514.1 204.85 514.1L192.79 488.15L125.08 529.88Z" fill="#787C9C"/>
<g opacity="0.1">
<path opacity="0.1" d="M90.2399 700.35C90.2399 700.35 109.96 631.11 119.16 624.54C121.988 622.472 124.545 620.056 126.77 617.35C131.272 611.909 133.535 604.959 133.1 597.91L129.24 529.91L193.85 490.05L192.97 488.16L125.28 529.88L129.14 597.88C129.591 604.93 127.342 611.888 122.85 617.34C120.625 620.046 118.068 622.462 115.24 624.53C106.04 631.1 86.3199 700.34 86.3199 700.34C86.3199 700.34 108.67 701.65 114.8 706.04C114.8 706.04 114.85 705.36 114.96 704.25C106.32 701.3 90.2399 700.35 90.2399 700.35Z" fill="black"/>
<path opacity="0.1" d="M230.04 696.41C230.04 696.41 233.55 677.13 230.04 672.31C226.53 667.49 216.85 623.66 216.85 623.66V608.76C199.36 602.63 178.76 567.1 178.76 567.1L177.23 571.1C183.17 580.52 199.02 603.91 212.94 608.78V623.68C212.94 623.68 222.58 667.5 226.09 672.32C229.6 677.14 226.09 696.42 226.09 696.42C226.09 696.42 230.98 702.57 241.78 701.74C233.73 701.1 230.04 696.41 230.04 696.41Z" fill="black"/>
</g>
<path d="M275.85 453.63L267.24 454.2L262.7 454.5V443.5L268.7 442.42L272.39 441.75C272.39 441.75 283.78 408.01 294.74 414.14C305.7 420.27 275.85 453.63 275.85 453.63Z" fill="#714B4F"/>
<path d="M137.79 363.36C137.79 363.36 132.09 385.27 130.34 398.86C128.59 412.45 171.09 401.49 171.09 401.49C171.09 401.49 154.88 381.77 164.09 371.25L137.79 363.36Z" fill="#714B4F"/>
<path d="M183.85 454.51L184.73 462.84L171.15 461.96L157.51 450.1L143.93 412L135.17 398.42L128.59 390.1L131.22 380.02C131.22 380.02 132.42 381.02 134.45 382.62C141.12 387.73 156.78 398.34 168.22 395.41C168.749 395.278 169.27 395.114 169.78 394.92L186.85 424.27L183.85 454.51Z" fill="#E6E6F0"/>
<path opacity="0.1" d="M134.72 377.38C134.72 377.38 127.72 378.69 122.89 389.21C119.18 397.3 106.67 405.64 101.08 409.07C100.014 409.722 99.09 410.581 98.3618 411.596C97.6336 412.611 97.1161 413.762 96.8401 414.98C95.7101 419.98 95.2801 429.28 101.42 442.68C111.06 463.68 118.07 472.92 118.07 472.92C118.07 472.92 119.82 493.92 117.19 500.09C114.56 506.26 117.19 539.97 117.19 539.97C117.19 539.97 163.19 548.73 178.54 539.97C193.89 531.21 191.69 497.46 191.69 497.46C191.69 497.46 206.15 528.1 211.41 529.01L208.34 511.92C208.34 511.92 191.25 493.51 190.34 469.85C190.34 469.85 185.08 448.38 189.46 442.68C189.46 442.68 263.52 448.82 267.9 443.56C267.9 443.56 219.26 441.37 211.81 429.56C211.81 429.56 190.34 412.47 189.46 401.08C189.332 398.943 188.661 396.875 187.512 395.069C186.362 393.264 184.772 391.781 182.89 390.76C179.909 389.065 176.489 388.302 173.07 388.57L163.17 389.25C163.17 389.25 180.26 419.49 179.38 423.43C178.5 427.37 180.26 459.36 180.26 459.36C180.26 459.36 160.58 416.82 151.85 412C143.12 407.18 133.01 387.39 133.01 387.39L134.76 377.39" fill="black"/>
<path opacity="0.1" d="M183.85 454.51L184.73 462.84L171.15 461.96L157.51 450.1L143.93 412L135.17 398.42L128.59 390.1L131.22 380.02C131.22 380.02 132.42 381.02 134.45 382.62L133.85 386.1C133.85 386.1 143.93 405.89 152.69 410.71C161.45 415.53 181.17 458.04 181.17 458.04C181.17 458.04 179.42 426.04 180.29 422.11C180.89 419.43 173.21 404.66 168.22 395.43C168.749 395.298 169.27 395.134 169.78 394.94L186.85 424.27L183.85 454.51Z" fill="black"/>
<path opacity="0.1" d="M267.22 454.21L262.68 454.51V443.51L268.68 442.43C266.57 445.22 266.64 450.1 267.22 454.21Z" fill="black"/>
<path d="M134.72 376.1C134.72 376.1 127.72 377.41 122.89 387.93C119.18 396.02 106.67 404.36 101.08 407.79C100.014 408.442 99.09 409.301 98.3618 410.316C97.6336 411.331 97.1161 412.482 96.8401 413.7C95.7101 418.7 95.2801 428 101.42 441.4C111.06 462.4 118.07 471.64 118.07 471.64C118.07 471.64 119.82 492.64 117.19 498.81C114.56 504.98 117.19 538.69 117.19 538.69C117.19 538.69 163.19 547.45 178.54 538.69C193.89 529.93 191.69 496.1 191.69 496.1C191.69 496.1 206.15 526.78 211.41 527.65L208.34 510.56C208.34 510.56 191.25 492.15 190.34 468.49C190.34 468.49 185.08 447.02 189.46 441.32C189.46 441.32 206.55 459.73 225.83 459.32C245.11 458.91 267.9 461.51 267.9 461.51C267.9 461.51 263.52 447.51 267.9 442.23C267.9 442.23 219.26 440.04 211.81 428.23C211.81 428.23 190.34 411.14 189.46 399.75C189.332 397.613 188.661 395.545 187.512 393.739C186.362 391.934 184.772 390.451 182.89 389.43C179.909 387.735 176.489 386.972 173.07 387.24L163.17 387.92C163.17 387.92 180.3 418.1 179.42 422.1C178.54 426.1 180.3 458.03 180.3 458.03C180.3 458.03 160.58 415.51 151.85 410.69C143.12 405.87 132.97 386.1 132.97 386.1L134.72 376.1Z" fill="#787C9C"/>
<path opacity="0.1" d="M125.08 422.1C125.08 422.1 135.6 457.6 141.73 461.98C147.86 466.36 185.11 488.71 196.07 483.45C196.07 483.45 198.7 496.6 194.76 499.66C194.76 499.66 153.9 498.06 153.57 497.91C153.57 497.91 126.84 494.4 122.46 481.26C118.08 468.12 112.82 445.76 112.82 445.76L125.08 422.1Z" fill="black"/>
<path d="M181.18 462.18C182.025 462.18 182.71 461.199 182.71 459.99C182.71 458.78 182.025 457.8 181.18 457.8C180.335 457.8 179.65 458.78 179.65 459.99C179.65 461.199 180.335 462.18 181.18 462.18Z" fill="#BA7855"/>
<path d="M185.56 477.52C186.405 477.52 187.09 476.539 187.09 475.33C187.09 474.12 186.405 473.14 185.56 473.14C184.715 473.14 184.03 474.12 184.03 475.33C184.03 476.539 184.715 477.52 185.56 477.52Z" fill="#BA7855"/>
<g opacity="0.1">
<path opacity="0.1" d="M120.26 538.21C120.26 538.21 117.63 504.47 120.26 498.33C122.89 492.19 121.14 471.16 121.14 471.16C121.14 471.16 114.14 461.96 104.49 440.92C98.3499 427.52 98.7899 418.22 99.9099 413.22C100.187 412.001 100.706 410.85 101.436 409.834C102.166 408.819 103.092 407.961 104.16 407.31C109.75 403.88 122.26 395.54 125.96 387.45C128.68 381.52 132.09 378.51 134.56 377.02L134.73 376.02C134.73 376.02 127.73 377.33 122.9 387.85C119.19 395.94 106.68 404.28 101.1 407.71C100.032 408.361 99.1062 409.219 98.3762 410.234C97.6462 411.25 97.1272 412.401 96.8499 413.62C95.7199 418.62 95.2899 427.92 101.43 441.32C111.07 462.32 118.08 471.56 118.08 471.56C118.08 471.56 119.83 492.56 117.2 498.73C114.57 504.9 117.2 538.61 117.2 538.61C117.2 538.61 150.07 544.87 169.51 541.52C149.85 543.85 120.26 538.21 120.26 538.21Z" fill="black"/>
<path opacity="0.1" d="M179.42 422.1C178.82 424.8 179.42 440.68 179.91 450.4C182.03 454.73 183.36 457.59 183.36 457.59C183.36 457.59 181.61 425.59 182.48 421.66C183.31 417.91 167.92 390.41 166.39 387.66L163.2 387.88C163.2 387.88 180.3 418.1 179.42 422.1Z" fill="black"/>
<path opacity="0.1" d="M228.94 458.89C209.66 459.33 192.57 440.89 192.57 440.89C192.053 441.606 191.677 442.414 191.46 443.27C196.46 447.98 210.46 459.65 225.87 459.27C245.15 458.83 267.94 461.46 267.94 461.46C267.94 461.46 267.85 461.17 267.71 460.67C254.83 459.358 241.886 458.763 228.94 458.89V458.89Z" fill="black"/>
<path opacity="0.1" d="M194.76 495.7C194.76 495.7 194.94 498.44 194.84 502.55C199.4 511.55 207.7 527.07 211.41 527.69L210.76 524.09C204.36 516.1 194.76 495.7 194.76 495.7Z" fill="black"/>
</g>
<path d="M207.03 491.32L197.72 493.32L190.38 494.87L194.32 483.87L197.06 483.18L201.33 482.12C201.33 482.12 207.47 451.44 219.74 453.64C232.01 455.84 207.03 491.32 207.03 491.32Z" fill="#714B4F"/>
<path opacity="0.1" d="M197.72 493.28L190.38 494.83L194.32 483.83L197.06 483.14C197.673 486.483 197.894 489.886 197.72 493.28Z" fill="black"/>
<path d="M125.08 421.2C125.08 421.2 135.6 456.7 141.73 461.08C147.86 465.46 185.11 487.81 196.07 482.55C196.07 482.55 198.7 495.7 194.76 498.76C194.76 498.76 153.9 497.16 153.57 497.01C153.57 497.01 126.84 493.5 122.46 480.36C118.08 467.22 112.82 444.86 112.82 444.86L125.08 421.2Z" fill="#787C9C"/>
<path opacity="0.1" d="M138.23 364.24C138.23 364.24 137.34 367.67 136.15 372.66C138.581 377.252 142.457 380.915 147.178 383.084C151.899 385.253 157.203 385.807 162.27 384.66C161.22 380.16 161.45 375.66 164.53 372.09L138.23 364.24Z" fill="black"/>
<path d="M156.64 384.39C169.707 384.39 180.3 373.797 180.3 360.73C180.3 347.663 169.707 337.07 156.64 337.07C143.573 337.07 132.98 347.663 132.98 360.73C132.98 373.797 143.573 384.39 156.64 384.39Z" fill="#714B4F"/>
<path opacity="0.1" d="M177.18 354.22C178.898 354.697 180.697 354.806 182.46 354.54C186.15 353.78 188.78 350.03 188.87 346.26C188.833 344.371 188.376 342.515 187.532 340.825C186.688 339.135 185.478 337.654 183.99 336.49C181.99 334.82 179.59 333.63 177.76 331.77C175.59 329.56 174.41 326.58 172.76 323.98C169.933 319.656 165.74 316.404 160.85 314.74C157.22 313.51 152.78 313.37 149.99 316.01C148.56 317.36 147.72 319.31 146.12 320.45C143.8 322.1 140.66 321.61 137.83 321.94C135.265 322.334 132.836 323.354 130.759 324.91C128.682 326.466 127.02 328.509 125.92 330.86C123.771 335.622 123.361 340.987 124.76 346.02C125.31 348.17 126.11 350.26 126.7 352.4C127.93 356.86 128.22 361.54 129.64 365.94C131.06 370.34 133.99 374.64 138.42 375.94C138.07 371.007 139.043 366.07 141.24 361.64C141.604 360.675 142.318 359.882 143.24 359.42C144.031 359.217 144.859 359.217 145.65 359.42C151.198 360.243 156.859 359.096 161.65 356.18C163.33 355.18 165.95 351.67 167.75 351.32C170.05 350.91 174.78 353.68 177.18 354.22Z" fill="black"/>
<path d="M177.18 353.34C178.898 353.817 180.697 353.926 182.46 353.66C186.15 352.9 188.78 349.15 188.87 345.38C188.833 343.491 188.376 341.635 187.532 339.945C186.688 338.255 185.478 336.774 183.99 335.61C181.99 333.94 179.59 332.75 177.76 330.89C175.59 328.68 174.41 325.7 172.76 323.1C169.933 318.776 165.74 315.524 160.85 313.86C157.22 312.63 152.78 312.49 149.99 315.13C148.56 316.48 147.72 318.43 146.12 319.57C143.8 321.22 140.66 320.73 137.83 321.06C135.265 321.454 132.836 322.474 130.759 324.03C128.682 325.586 127.02 327.629 125.92 329.98C123.781 334.73 123.37 340.079 124.76 345.1C125.31 347.25 126.11 349.34 126.7 351.48C127.93 355.94 128.22 360.62 129.64 365.02C131.06 369.42 133.99 373.72 138.42 375.02C138.07 370.087 139.043 365.15 141.24 360.72C141.604 359.755 142.318 358.962 143.24 358.5C144.031 358.297 144.859 358.297 145.65 358.5C151.198 359.323 156.859 358.176 161.65 355.26C163.33 354.26 165.95 350.75 167.75 350.4C170.05 350.03 174.78 352.81 177.18 353.34Z" fill="#503F43"/>
<path d="M743.08 107.84H226.33V725.84H743.08V107.84Z" fill="#FAFBFC"/>
<path d="M743.08 107.84H226.33V128.79H743.08V107.84Z" fill="#7983A6"/>
<path d="M296.16 359.67H673.25" stroke="#7983A6" stroke-miterlimit="10"/>
<g opacity="0.5">
<path opacity="0.5" d="M296.16 318.64H302.16" stroke="#7983A6" stroke-miterlimit="10"/>
<path opacity="0.5" d="M313.94 318.64H661.36" stroke="#7983A6" stroke-miterlimit="10" stroke-dasharray="11.78 11.78"/>
<path opacity="0.5" d="M667.25 318.64H673.25" stroke="#7983A6" stroke-miterlimit="10"/>
</g>
<g opacity="0.5">
<path opacity="0.5" d="M296.16 277.62H302.16" stroke="#7983A6" stroke-miterlimit="10"/>
<path opacity="0.5" d="M313.94 277.62H661.36" stroke="#7983A6" stroke-miterlimit="10" stroke-dasharray="11.78 11.78"/>
<path opacity="0.5" d="M667.25 277.62H673.25" stroke="#7983A6" stroke-miterlimit="10"/>
</g>
<g opacity="0.5">
<path opacity="0.5" d="M296.16 236.59H302.16" stroke="#7983A6" stroke-miterlimit="10"/>
<path opacity="0.5" d="M313.94 236.59H661.36" stroke="#7983A6" stroke-miterlimit="10" stroke-dasharray="11.78 11.78"/>
<path opacity="0.5" d="M667.25 236.59H673.25" stroke="#7983A6" stroke-miterlimit="10"/>
</g>
<g opacity="0.5">
<path opacity="0.5" d="M296.16 195.57H302.16" stroke="#7983A6" stroke-miterlimit="10"/>
<path opacity="0.5" d="M313.94 195.57H661.36" stroke="#7983A6" stroke-miterlimit="10" stroke-dasharray="11.78 11.78"/>
<path opacity="0.5" d="M667.25 195.57H673.25" stroke="#7983A6" stroke-miterlimit="10"/>
</g>
<g opacity="0.3">
<path opacity="0.3" d="M341.99 277.62H314.93V359.67H341.99V277.62Z" fill="#EB6F86"/>
</g>
<path d="M417.49 236.15H390.43V360.1H417.49V236.15Z" fill="#EB6F86"/>
<g opacity="0.3">
<path opacity="0.3" d="M493 318.2H465.94V360.53H493V318.2Z" fill="#EB6F86"/>
</g>
<path d="M568.5 194.26H541.44V360.11H568.5V194.26Z" fill="#EB6F86"/>
<g opacity="0.3">
<path opacity="0.3" d="M644 234.41H616.94V359.67H644V234.41Z" fill="#EB6F86"/>
</g>
<path d="M328.46 385.41C332.315 385.41 335.44 382.285 335.44 378.43C335.44 374.575 332.315 371.45 328.46 371.45C324.605 371.45 321.48 374.575 321.48 378.43C321.48 382.285 324.605 385.41 328.46 385.41Z" fill="#EB6F86"/>
<path d="M404.4 385.41C408.255 385.41 411.38 382.285 411.38 378.43C411.38 374.575 408.255 371.45 404.4 371.45C400.545 371.45 397.42 374.575 397.42 378.43C397.42 382.285 400.545 385.41 404.4 385.41Z" fill="#EB6F86"/>
<path d="M480.34 385.41C484.195 385.41 487.32 382.285 487.32 378.43C487.32 374.575 484.195 371.45 480.34 371.45C476.485 371.45 473.36 374.575 473.36 378.43C473.36 382.285 476.485 385.41 480.34 385.41Z" fill="#EB6F86"/>
<path d="M556.28 385.41C560.135 385.41 563.26 382.285 563.26 378.43C563.26 374.575 560.135 371.45 556.28 371.45C552.425 371.45 549.3 374.575 549.3 378.43C549.3 382.285 552.425 385.41 556.28 385.41Z" fill="#EB6F86"/>
<path d="M632.22 385.41C636.075 385.41 639.2 382.285 639.2 378.43C639.2 374.575 636.075 371.45 632.22 371.45C628.365 371.45 625.24 374.575 625.24 378.43C625.24 382.285 628.365 385.41 632.22 385.41Z" fill="#EB6F86"/>
<path d="M296.16 623.28H673.25" stroke="#7983A6" stroke-miterlimit="10"/>
<g opacity="0.5">
<path opacity="0.5" d="M296.16 582.25H302.16" stroke="#7983A6" stroke-miterlimit="10"/>
<path opacity="0.5" d="M313.94 582.25H661.36" stroke="#7983A6" stroke-miterlimit="10" stroke-dasharray="11.78 11.78"/>
<path opacity="0.5" d="M667.25 582.25H673.25" stroke="#7983A6" stroke-miterlimit="10"/>
</g>
<g opacity="0.5">
<path opacity="0.5" d="M296.16 541.23H302.16" stroke="#7983A6" stroke-miterlimit="10"/>
<path opacity="0.5" d="M313.94 541.23H661.36" stroke="#7983A6" stroke-miterlimit="10" stroke-dasharray="11.78 11.78"/>
<path opacity="0.5" d="M667.25 541.23H673.25" stroke="#7983A6" stroke-miterlimit="10"/>
</g>
<g opacity="0.5">
<path opacity="0.5" d="M296.16 500.2H302.16" stroke="#7983A6" stroke-miterlimit="10"/>
<path opacity="0.5" d="M313.94 500.2H661.36" stroke="#7983A6" stroke-miterlimit="10" stroke-dasharray="11.78 11.78"/>
<path opacity="0.5" d="M667.25 500.2H673.25" stroke="#7983A6" stroke-miterlimit="10"/>
</g>
<g opacity="0.5">
<path opacity="0.5" d="M296.16 459.18H302.16" stroke="#7983A6" stroke-miterlimit="10"/>
<path opacity="0.5" d="M313.94 459.18H661.36" stroke="#7983A6" stroke-miterlimit="10" stroke-dasharray="11.78 11.78"/>
<path opacity="0.5" d="M667.25 459.18H673.25" stroke="#7983A6" stroke-miterlimit="10"/>
</g>
<path d="M341.99 541.23H314.93V623.28H341.99V541.23Z" fill="#EB6F86"/>
<path d="M417.49 540.79H390.43V623.71H417.49V540.79Z" fill="#EB6F86"/>
<path d="M493 581.82H465.94V624.15H493V581.82Z" fill="#EB6F86"/>
<path d="M568.5 457.87H541.44V623.72H568.5V457.87Z" fill="#EB6F86"/>
<path d="M747 360.02H719.94V485.28H747V360.02Z" fill="#EB6F86"/>
<g opacity="0.7">
<path opacity="0.7" d="M328.46 649.02C332.315 649.02 335.44 645.895 335.44 642.04C335.44 638.185 332.315 635.06 328.46 635.06C324.605 635.06 321.48 638.185 321.48 642.04C321.48 645.895 324.605 649.02 328.46 649.02Z" fill="#EB6F86"/>
</g>
<g opacity="0.7">
<path opacity="0.7" d="M404.4 649.02C408.255 649.02 411.38 645.895 411.38 642.04C411.38 638.185 408.255 635.06 404.4 635.06C400.545 635.06 397.42 638.185 397.42 642.04C397.42 645.895 400.545 649.02 404.4 649.02Z" fill="#EB6F86"/>
</g>
<g opacity="0.7">
<path opacity="0.7" d="M480.34 649.02C484.195 649.02 487.32 645.895 487.32 642.04C487.32 638.185 484.195 635.06 480.34 635.06C476.485 635.06 473.36 638.185 473.36 642.04C473.36 645.895 476.485 649.02 480.34 649.02Z" fill="#EB6F86"/>
</g>
<g opacity="0.7">
<path opacity="0.7" d="M556.28 649.02C560.135 649.02 563.26 645.895 563.26 642.04C563.26 638.185 560.135 635.06 556.28 635.06C552.425 635.06 549.3 638.185 549.3 642.04C549.3 645.895 552.425 649.02 556.28 649.02Z" fill="#EB6F86"/>
</g>
<g opacity="0.7">
<path opacity="0.7" d="M632.22 649.02C636.075 649.02 639.2 645.895 639.2 642.04C639.2 638.185 636.075 635.06 632.22 635.06C628.365 635.06 625.24 638.185 625.24 642.04C625.24 645.895 628.365 649.02 632.22 649.02Z" fill="#EB6F86"/>
</g>
<path d="M188.05 723.58C189.883 722.086 191.218 720.07 191.88 717.8C192.38 715.5 191.4 712.75 189.2 711.91C186.74 710.97 184.11 712.67 182.12 714.4C180.13 716.13 177.84 718.09 175.23 717.72C176.571 716.504 177.575 714.961 178.143 713.242C178.711 711.523 178.823 709.686 178.47 707.91C178.357 707.174 178.046 706.483 177.57 705.91C176.2 704.45 173.73 705.08 172.09 706.23C166.89 709.89 165.44 716.95 165.41 723.31C164.89 721.02 165.33 718.63 165.31 716.31C165.29 713.99 164.65 711.31 162.67 710.09C161.442 709.43 160.063 709.103 158.67 709.14C156.33 709.05 153.73 709.29 152.13 711C150.13 713.12 150.66 716.69 152.39 719C154.12 721.31 156.74 722.8 159.16 724.42C161.099 725.573 162.754 727.149 164 729.03C164.146 729.291 164.267 729.565 164.36 729.85H179.01C182.292 728.177 185.333 726.068 188.05 723.58V723.58Z" fill="#EB6F86"/>
<path d="M900.05 711.58C901.883 710.086 903.218 708.07 903.88 705.8C904.38 703.5 903.4 700.75 901.2 699.91C898.74 698.97 896.11 700.67 894.12 702.4C892.13 704.13 889.84 706.09 887.23 705.72C888.571 704.504 889.575 702.961 890.143 701.242C890.711 699.523 890.823 697.686 890.47 695.91C890.357 695.174 890.046 694.483 889.57 693.91C888.2 692.45 885.73 693.08 884.09 694.23C878.89 697.89 877.44 704.95 877.41 711.31C876.89 709.02 877.33 706.63 877.31 704.31C877.29 701.99 876.65 699.31 874.67 698.09C873.442 697.43 872.063 697.103 870.67 697.14C868.33 697.05 865.73 697.29 864.13 699C862.13 701.12 862.66 704.69 864.39 707C866.12 709.31 868.74 710.8 871.16 712.42C873.099 713.573 874.754 715.149 876 717.03C876.147 717.291 876.267 717.565 876.36 717.85H891.01C894.292 716.177 897.333 714.068 900.05 711.58V711.58Z" fill="#EB6F86"/>
<path d="M796.45 469.56L789.14 468.71L733.14 462.2C699.15 451.46 720.65 435.1 720.65 435.1L743.28 456.6C749.81 457.91 775.41 454.86 786.88 453.39C790.32 452.94 792.49 452.64 792.49 452.64L796.45 469.56Z" fill="#FDC2CC"/>
<path d="M851.32 392.1C851.32 392.1 836.61 380.22 814.55 418.69C792.49 457.16 787.4 450.93 787.4 450.93C787.4 450.93 791.93 467.93 789.66 471.3C789.66 471.3 804.93 470.17 810.59 471.3C816.25 472.43 851.32 428.3 851.32 428.3C851.32 428.3 869.43 403.38 851.32 392.1Z" fill="#F68080"/>
</g>
<defs>
<linearGradient id="paint0_linear" x1="783.23" y1="732.01" x2="783.23" y2="312.58" gradientUnits="userSpaceOnUse">
<stop stop-color="#808080" stop-opacity="0.25"/>
<stop offset="0.54" stop-color="#808080" stop-opacity="0.12"/>
<stop offset="1" stop-color="#808080" stop-opacity="0.1"/>
</linearGradient>
<linearGradient id="paint1_linear" x1="66891.1" y1="345575" x2="66891.1" y2="161545" gradientUnits="userSpaceOnUse">
<stop stop-color="#808080" stop-opacity="0.25"/>
<stop offset="0.54" stop-color="#808080" stop-opacity="0.12"/>
<stop offset="1" stop-color="#808080" stop-opacity="0.1"/>
</linearGradient>
<clipPath id="clip0">
<rect width="971.7" height="764.21" fill="white"/>
</clipPath>
</defs>
</svg>
